<mxfile host="app.diagrams.net" agent="Mozilla/5.0 (Windows NT 10.0; Win64; x64) AppleWebKit/537.36 (KHTML, like Gecko) Chrome/133.0.0.0 Safari/537.36" version="26.0.16">
  <diagram id="C5RBs43oDa-KdzZeNtuy" name="Page-1">
    <mxGraphModel dx="880" dy="468" grid="1" gridSize="10" guides="1" tooltips="1" connect="1" arrows="1" fold="1" page="1" pageScale="1" pageWidth="827" pageHeight="1169" math="0" shadow="0">
      <root>
        <mxCell id="WIyWlLk6GJQsqaUBKTNV-0" />
        <mxCell id="WIyWlLk6GJQsqaUBKTNV-1" parent="WIyWlLk6GJQsqaUBKTNV-0" />
        <mxCell id="gyJLIAOMuvyEQewI9pRI-0" value="Inicio" style="rounded=1;whiteSpace=wrap;html=1;" vertex="1" parent="WIyWlLk6GJQsqaUBKTNV-1">
          <mxGeometry x="140" y="160" width="270" height="60" as="geometry" />
        </mxCell>
        <mxCell id="gyJLIAOMuvyEQewI9pRI-3" value="" style="endArrow=classic;html=1;rounded=0;" edge="1" parent="WIyWlLk6GJQsqaUBKTNV-1">
          <mxGeometry width="50" height="50" relative="1" as="geometry">
            <mxPoint x="274.5" y="220" as="sourcePoint" />
            <mxPoint x="275" y="270" as="targetPoint" />
          </mxGeometry>
        </mxCell>
        <mxCell id="gyJLIAOMuvyEQewI9pRI-4" value="&lt;span data-teams=&quot;true&quot;&gt;Solicitar al usuario el número de barras producidas en un día (N).&lt;/span&gt;" style="shape=parallelogram;perimeter=parallelogramPerimeter;whiteSpace=wrap;html=1;fixedSize=1;size=20;" vertex="1" parent="WIyWlLk6GJQsqaUBKTNV-1">
          <mxGeometry x="155" y="270" width="240" height="100" as="geometry" />
        </mxCell>
        <mxCell id="gyJLIAOMuvyEQewI9pRI-8" value="" style="endArrow=classic;html=1;rounded=0;" edge="1" parent="WIyWlLk6GJQsqaUBKTNV-1">
          <mxGeometry width="50" height="50" relative="1" as="geometry">
            <mxPoint x="274.5" y="370" as="sourcePoint" />
            <mxPoint x="274.5" y="440" as="targetPoint" />
            <Array as="points" />
          </mxGeometry>
        </mxCell>
        <mxCell id="gyJLIAOMuvyEQewI9pRI-14" value="" style="edgeStyle=orthogonalEdgeStyle;rounded=0;orthogonalLoop=1;jettySize=auto;html=1;" edge="1" parent="WIyWlLk6GJQsqaUBKTNV-1" source="gyJLIAOMuvyEQewI9pRI-11" target="gyJLIAOMuvyEQewI9pRI-12">
          <mxGeometry relative="1" as="geometry" />
        </mxCell>
        <mxCell id="gyJLIAOMuvyEQewI9pRI-11" value="&lt;span data-teams=&quot;true&quot;&gt;&lt;p&gt;Costo Materia Prima ← 2.50&lt;/p&gt;&lt;p&gt;&amp;nbsp; &amp;nbsp; Costo Empaque ← 0.50&lt;/p&gt;&lt;p&gt;&amp;nbsp; &amp;nbsp; Barras Por Caja ← 10&lt;/p&gt;&lt;p&gt;&amp;nbsp; &amp;nbsp; Porcentaje Ganancia ← 0.30&lt;/p&gt;&lt;/span&gt;" style="rounded=0;whiteSpace=wrap;html=1;" vertex="1" parent="WIyWlLk6GJQsqaUBKTNV-1">
          <mxGeometry x="150" y="440" width="250" height="110" as="geometry" />
        </mxCell>
        <mxCell id="gyJLIAOMuvyEQewI9pRI-23" value="" style="edgeStyle=orthogonalEdgeStyle;rounded=0;orthogonalLoop=1;jettySize=auto;html=1;" edge="1" parent="WIyWlLk6GJQsqaUBKTNV-1" source="gyJLIAOMuvyEQewI9pRI-12" target="gyJLIAOMuvyEQewI9pRI-19">
          <mxGeometry relative="1" as="geometry" />
        </mxCell>
        <mxCell id="gyJLIAOMuvyEQewI9pRI-12" value="&lt;span data-teams=&quot;true&quot;&gt;Leer / Calcular&lt;/span&gt;&lt;div&gt;&lt;br&gt;&lt;div&gt;Costo Por Barra = Costo Materia Prima + Costo Empaque&lt;br&gt;&lt;div&gt;&lt;span data-teams=&quot;true&quot;&gt;&lt;span data-teams=&quot;true&quot;&gt;&lt;p&gt;Costo Total Produccion = N * Costo Por Barra&lt;/p&gt;&lt;p&gt;Precio Venta Por Barra = Costo Por Barra * (1 + Porcentaje Ganancia)&lt;/p&gt;&lt;p&gt;Ingreso Total = N * Precio Venta Por Barra&lt;/p&gt;&lt;/span&gt;&lt;/span&gt;&lt;/div&gt;&lt;/div&gt;&lt;/div&gt;" style="shape=parallelogram;perimeter=parallelogramPerimeter;whiteSpace=wrap;html=1;fixedSize=1;size=20;" vertex="1" parent="WIyWlLk6GJQsqaUBKTNV-1">
          <mxGeometry x="125" y="600" width="300" height="170" as="geometry" />
        </mxCell>
        <mxCell id="gyJLIAOMuvyEQewI9pRI-17" value="Fin" style="rounded=1;whiteSpace=wrap;html=1;" vertex="1" parent="WIyWlLk6GJQsqaUBKTNV-1">
          <mxGeometry x="140" y="1080" width="270" height="60" as="geometry" />
        </mxCell>
        <mxCell id="gyJLIAOMuvyEQewI9pRI-21" value="" style="edgeStyle=orthogonalEdgeStyle;rounded=0;orthogonalLoop=1;jettySize=auto;html=1;" edge="1" parent="WIyWlLk6GJQsqaUBKTNV-1" source="gyJLIAOMuvyEQewI9pRI-18" target="gyJLIAOMuvyEQewI9pRI-17">
          <mxGeometry relative="1" as="geometry" />
        </mxCell>
        <mxCell id="gyJLIAOMuvyEQewI9pRI-18" value="Mostar resultados" style="shape=parallelogram;perimeter=parallelogramPerimeter;whiteSpace=wrap;html=1;fixedSize=1;" vertex="1" parent="WIyWlLk6GJQsqaUBKTNV-1">
          <mxGeometry x="170" y="970" width="210" height="60" as="geometry" />
        </mxCell>
        <mxCell id="gyJLIAOMuvyEQewI9pRI-22" value="" style="edgeStyle=orthogonalEdgeStyle;rounded=0;orthogonalLoop=1;jettySize=auto;html=1;" edge="1" parent="WIyWlLk6GJQsqaUBKTNV-1" source="gyJLIAOMuvyEQewI9pRI-19" target="gyJLIAOMuvyEQewI9pRI-18">
          <mxGeometry relative="1" as="geometry" />
        </mxCell>
        <mxCell id="gyJLIAOMuvyEQewI9pRI-19" value="&lt;div&gt;Leer y calcular cantidad de cajas completas&lt;/div&gt;&lt;div&gt;&amp;nbsp;y barras sueltas&lt;/div&gt;&lt;div&gt;&lt;br&gt;&lt;div&gt;Cajas Completas = N div Barras Por Caja&lt;/div&gt;&lt;/div&gt;&lt;div&gt;&amp;nbsp;Barras Sueltas = N mod Barras Por Caja&lt;/div&gt;" style="shape=parallelogram;perimeter=parallelogramPerimeter;whiteSpace=wrap;html=1;fixedSize=1;size=20;" vertex="1" parent="WIyWlLk6GJQsqaUBKTNV-1">
          <mxGeometry x="125" y="820" width="300" height="100" as="geometry" />
        </mxCell>
      </root>
    </mxGraphModel>
  </diagram>
</mxfile>
